<?xml version="1.0" encoding="UTF-8"?>
<svg width="20.000146px" height="16.0080269px" viewBox="0 0 20.000146 16.0080269" version="1.1" xmlns="http://www.w3.org/2000/svg" xmlns:xlink="http://www.w3.org/1999/xlink">
    <title>arrow-right</title>
    <g id="Web-app" stroke="none" stroke-width="1" fill="none" fill-rule="evenodd">
        <g id="Web-App-1" transform="translate(-926, -1173)" fill="#FFFFFF" fill-rule="nonzero">
            <g id="Group-3" transform="translate(828, 1156)">
                <g id="Group-2" transform="translate(22, 15)">
                    <g id="arrow-right" transform="translate(76, 2)">
                        <path d="M1,9.00004999 L16.5860908,9.00004999 L11.2930619,14.293079 C11.0357398,14.5447496 10.9335199,14.9152907 11.025411,15.2632976 C11.117302,15.6113044 11.3891252,15.8830796 11.7371483,15.9749091 C12.0851714,16.0667387 12.4556945,15.9644532 12.7073196,15.7070867 L19.7073579,8.70704839 C20.097742,8.31654639 20.097742,7.68354263 19.7073579,7.29304064 L12.7073196,0.293002299 C12.5199365,0.105133647 12.2654089,-0.00031221297 12.0000657,0 C11.5956676,0 11.2311275,0.243729529 11.0763827,0.617349518 C10.9216379,0.990969506 11.0071524,1.42101422 11.2930619,1.70701004 L16.5860908,7.00003904 L1,7.00003904 C0.447717702,7.00003904 0,7.44775674 0,8.00004451 C0,8.55233229 0.447717702,9.00004999 1,9.00004999 Z" id="Path"></path>
                    </g>
                </g>
            </g>
        </g>
    </g>
</svg>