<?xml version="1.0" encoding="UTF-8"?>
<svg width="50px" height="50px" viewBox="0 0 50 50" version="1.1" xmlns="http://www.w3.org/2000/svg" xmlns:xlink="http://www.w3.org/1999/xlink">
    <title>shield-svgrepo-com</title>
    <g id="Web-app" stroke="none" stroke-width="1" fill="none" fill-rule="evenodd">
        <g id="Web-App-5" transform="translate(-98, -1320)" fill="#242755" fill-rule="nonzero">
            <g id="shield-svgrepo-com" transform="translate(98, 1320)">
                <path d="M25,0 C11.1922852,0 0,11.1922852 0,25 C0,38.8077148 11.1922852,50 25,50 C38.8077148,50 50,38.8077148 50,25 C50,11.1922852 38.8077148,0 25,0 Z M25,46.09375 C13.3499023,46.09375 3.90625,36.6500977 3.90625,25 C3.90625,13.3499023 13.3499023,3.90625 25,3.90625 C36.6500977,3.90625 46.09375,13.3499023 46.09375,25 C46.09375,36.6500977 36.6500977,46.09375 25,46.09375 Z" id="Shape"></path>
                <path d="M35.9008789,15.768457 C35.9008789,15.768457 32.2616211,16.1865234 30.4443359,15.768457 C28.724707,15.3748047 24.9695313,12.490918 24.9557617,12.4999786 C24.5879883,12.7869141 21.2264648,15.3838867 19.5586914,15.768457 C17.7382813,16.1865234 14.0991211,15.768457 14.0991211,15.768457 C14.0991211,15.768457 13.6444336,20.9945313 15.9179688,27.4764648 C18.1274414,33.7707031 24.9969727,37.5014648 25,37.5000005 C25.0030273,37.5015625 31.8741211,33.7707031 34.0790039,27.4764648 C36.3541016,20.9945313 35.9008789,15.768457 35.9008789,15.768457 Z M30.8395508,26.5152344 C29.6859375,29.806543 26.8554688,32.3120117 25,33.6700195 C23.1475586,32.3134766 20.3125,29.8080078 19.1574219,26.5166992 C18.1426758,23.6236328 17.7276367,20.9869141 17.5644531,19.0795898 C18.6935547,19.0704102 19.6167969,18.9789062 20.3842773,18.8018555 C21.7499023,18.4890625 23.440625,17.5262695 24.9969727,16.4672852 C27.5314453,18.1610352 28.787207,18.6126953 29.6188477,18.8018555 C30.3833008,18.9788086 31.3064453,19.0704102 32.4356445,19.0795898 C32.2738281,20.9854492 31.8573242,23.6175781 30.8395508,26.5152344 Z" id="Shape"></path>
            </g>
        </g>
    </g>
</svg>