<?xml version="1.0" encoding="UTF-8"?>
<svg width="30px" height="30px" viewBox="0 0 30 30" version="1.1" xmlns="http://www.w3.org/2000/svg" xmlns:xlink="http://www.w3.org/1999/xlink">
    <title>heart-svgrepo-com copy</title>
    <g id="Web-app" stroke="none" stroke-width="1" fill="none" fill-rule="evenodd">
        <g id="Web-App-1" transform="translate(-1018, -468)" fill="#B6D055" fill-rule="nonzero">
            <g id="Group-7" transform="translate(998, 451)">
                <g id="heart-svgrepo-com-copy" transform="translate(20, 17)">
                    <path d="M18.2080078,9.4375 C16.9262695,9.4375 15.7836914,10.0280078 15,10.9472266 C14.2089844,10.0280078 13.0664062,9.4375 11.784668,9.4375 C9.41894531,9.4375 7.5,11.3958203 7.5,13.8100586 C7.5,19.28125 15,22.5625 15,22.5625 C15,22.5625 22.5,19.28125 22.5,13.8100586 C22.5,11.3958203 20.5810547,9.4375 18.2080078,9.4375 Z" id="Path"></path>
                    <path d="M15,0 C6.71537109,0 0,6.71537109 0,15 C0,23.2846289 6.71537109,30 15,30 C23.2846289,30 30,23.2846289 30,15 C30,6.71537109 23.2846289,0 15,0 Z M15,27.65625 C8.00994141,27.65625 2.34375,21.9900586 2.34375,15 C2.34375,8.00994141 8.00994141,2.34375 15,2.34375 C21.9900586,2.34375 27.65625,8.00994141 27.65625,15 C27.65625,21.9900586 21.9900586,27.65625 15,27.65625 Z" id="Shape"></path>
                </g>
            </g>
        </g>
    </g>
</svg>