<?xml version="1.0" encoding="UTF-8"?>
<svg width="220px" height="100px" viewBox="0 0 220 100" version="1.1" xmlns="http://www.w3.org/2000/svg" xmlns:xlink="http://www.w3.org/1999/xlink">
    <title>limpiafacil_logo_1</title>
    <defs>
        <linearGradient x1="98.3716575%" y1="50.0087032%" x2="14.1660597%" y2="50.0087032%" id="linearGradient-1">
            <stop stop-color="#B8CE12" offset="0%"></stop>
            <stop stop-color="#AECC25" offset="5%"></stop>
            <stop stop-color="#94C95A" offset="18%"></stop>
            <stop stop-color="#7DC687" offset="32%"></stop>
            <stop stop-color="#6AC4AD" offset="46%"></stop>
            <stop stop-color="#5CC2C9" offset="60%"></stop>
            <stop stop-color="#52C1DE" offset="73%"></stop>
            <stop stop-color="#4CC0EA" offset="87%"></stop>
            <stop stop-color="#4AC0EF" offset="100%"></stop>
        </linearGradient>
        <linearGradient x1="653.89097%" y1="50%" x2="-19.6837287%" y2="50%" id="linearGradient-2">
            <stop stop-color="#B8CE12" offset="0%"></stop>
            <stop stop-color="#AECC25" offset="5%"></stop>
            <stop stop-color="#94C95A" offset="18%"></stop>
            <stop stop-color="#7DC687" offset="32%"></stop>
            <stop stop-color="#6AC4AD" offset="46%"></stop>
            <stop stop-color="#5CC2C9" offset="60%"></stop>
            <stop stop-color="#52C1DE" offset="73%"></stop>
            <stop stop-color="#4CC0EA" offset="87%"></stop>
            <stop stop-color="#4AC0EF" offset="100%"></stop>
        </linearGradient>
        <linearGradient x1="158.5238%" y1="49.9742931%" x2="-180.876494%" y2="49.9742931%" id="linearGradient-3">
            <stop stop-color="#B8CE12" offset="0%"></stop>
            <stop stop-color="#AECC25" offset="5%"></stop>
            <stop stop-color="#94C95A" offset="18%"></stop>
            <stop stop-color="#7DC687" offset="32%"></stop>
            <stop stop-color="#6AC4AD" offset="46%"></stop>
            <stop stop-color="#5CC2C9" offset="60%"></stop>
            <stop stop-color="#52C1DE" offset="73%"></stop>
            <stop stop-color="#4CC0EA" offset="87%"></stop>
            <stop stop-color="#4AC0EF" offset="100%"></stop>
        </linearGradient>
        <linearGradient x1="175.163241%" y1="50.0034822%" x2="-216.275695%" y2="50.0034822%" id="linearGradient-4">
            <stop stop-color="#B8CE12" offset="0%"></stop>
            <stop stop-color="#AECC25" offset="5%"></stop>
            <stop stop-color="#94C95A" offset="18%"></stop>
            <stop stop-color="#7DC687" offset="32%"></stop>
            <stop stop-color="#6AC4AD" offset="46%"></stop>
            <stop stop-color="#5CC2C9" offset="60%"></stop>
            <stop stop-color="#52C1DE" offset="73%"></stop>
            <stop stop-color="#4CC0EA" offset="87%"></stop>
            <stop stop-color="#4AC0EF" offset="100%"></stop>
        </linearGradient>
    </defs>
    <g id="Web-app" stroke="none" stroke-width="1" fill="none" fill-rule="evenodd">
        <g id="Web-App-4" transform="translate(-70, -30)" fill-rule="nonzero">
            <g id="limpiafacil_logo_1" transform="translate(70, 30)">
                <path d="M140.614608,49.4641346 L140.614608,39.4378114 C144.3079,40.6270565 147.249291,43.0149478 147.939715,45.6425684 C152.592978,40.7962771 155.453978,34.2342766 155.453978,27.0047946 C155.453978,12.089875 143.29118,0 128.286299,0 C121.755652,0 115.764103,2.28917928 111.077738,6.10604494 L89.982,6.10604494 C88.6957322,6.10604494 87.6459107,7.15427282 87.6459107,8.42812823 C87.6459107,9.70198364 88.6957322,10.7502115 89.982,10.7502115 L102.920341,10.7502115 C104.206609,10.7502115 105.25643,11.7937388 105.25643,13.0722948 C105.25643,14.3508508 104.206609,15.3943781 102.920341,15.3943781 L76.6417003,15.3943781 C75.3554325,15.3943781 74.305611,16.4379054 74.305611,17.7164614 C74.305611,18.9950174 75.3554325,20.0385447 76.6417003,20.0385447 L96.5788515,20.0385447 C97.8651193,20.0385447 98.9149408,21.082072 98.9149408,22.360628 C98.9149408,23.639184 97.8651193,24.6827113 96.5788515,24.6827113 L66.8906554,24.6827113 C65.6043875,24.6827113 64.554566,25.7262386 64.554566,27.0047946 C64.554566,28.2833506 65.6043875,29.3268779 66.8906554,29.3268779 L99.7850632,29.3268779 C101.071331,29.3268779 102.121153,30.3751058 102.121153,31.6489612 C102.121153,32.9228166 101.066602,33.9710445 99.7850632,33.9710445 L96.5599358,33.9710445 C93.5807125,34.3564915 93.5570679,38.0370405 96.4464416,38.6152111 L98.8676516,38.6152111 C101.936724,38.6152111 101.936724,43.2593776 98.8676516,43.2593776 L93.0463439,43.2593776 C91.7600761,43.2593776 90.7102546,44.302905 90.7102546,45.5814609 C90.7102546,46.8600169 91.7600761,47.9035442 93.0463439,47.9035442 L111.077738,47.9035442 C111.15813,47.9693523 111.238521,48.0257591 111.314184,48.0915672 L111.314184,46.80361 C111.314184,43.7388361 114.562956,40.8244806 118.790616,39.4472126 L118.790616,52.3126821 C121.746195,53.4079158 124.938219,54.0095892 128.276841,54.0095892 C132.717302,54.0095892 136.907131,52.942559 140.605151,51.0670302 L140.605151,49.4594341 L140.614608,49.4641346 Z M123.675596,47.95055 L123.675596,38.483595 C117.334107,37.9712325 112.070812,36.6879759 110.775087,34.8782551 C116.544376,34.1026605 115.948532,29.3738836 115.948532,21.5004231 C115.948532,11.6292188 122.725082,6.69831719 129.506362,6.69831719 C136.287641,6.69831719 143.064192,11.6339193 143.064192,21.5004231 C143.064192,29.3738836 142.468347,34.1073611 148.237637,34.8782551 C146.951369,36.6738742 141.777924,37.9477296 135.521555,38.4694933 L135.743815,38.5023973 L135.743815,47.95055 L123.680325,47.95055 L123.675596,47.95055 Z" id="Shape" fill="url(#linearGradient-1)"></path>
                <path d="M88.6957322,33.975745 L82.0043022,33.975745 C80.7180344,33.975745 79.6682129,35.0192724 79.6682129,36.2978283 C79.6682129,37.5763843 80.7227633,38.6199116 82.0043022,38.6199116 L88.6957322,38.6199116 C89.982,38.6199116 91.0318215,37.5716837 91.0318215,36.2978283 C91.0318215,35.0239729 89.982,33.975745 88.6957322,33.975745 Z" id="Path" fill="url(#linearGradient-2)"></path>
                <path d="M140.259939,18.9809157 C140.586235,18.5296606 140.775392,18.0031964 140.775392,17.4438281 C140.775392,15.7798251 139.134455,14.4307606 137.105746,14.4307606 C136.826739,14.4307606 136.552461,14.458964 136.287641,14.5059697 C135.715441,11.8548463 132.887544,9.83830027 129.496904,9.83830027 C126.106264,9.83830027 123.278367,11.8548463 122.706167,14.5059697 C122.441347,14.458964 122.167069,14.4307606 121.888062,14.4307606 C119.864082,14.4307606 118.223145,15.7798251 118.223145,17.4438281 C118.223145,18.007897 118.412302,18.5296606 118.738598,18.9809157 C121.216555,17.2370029 125.117919,16.1135659 129.501633,16.1135659 C133.885347,16.1135659 137.786711,17.2370029 140.264668,18.9809157 L140.259939,18.9809157 Z" id="Path" fill="url(#linearGradient-3)"></path>
                <path d="M139.276322,25.2749835 C139.276322,21.1854846 131.984319,21.2747955 129.496904,18.3933138 C129.009825,18.3839428 129.496904,20.5744101 134.098149,23.5310708 C129.884676,23.6438846 125.406383,22.5110463 123.056107,19.1454357 C122.389328,21.622638 120.493029,21.9328758 119.722214,21.9328758 L119.722214,25.2749835 C119.722214,39.1745793 139.276322,39.1745793 139.276322,25.2749835 Z" id="Path" fill="url(#linearGradient-4)"></path>
                <path d="M3.87299023,61.0886528 C5.14507126,60.7361098 7.33929283,60.4305725 8.81471768,60.4305725 C12.5884005,60.4305725 12.5884005,61.2390712 12.0256583,65.8503337 L9.58080366,85.3060073 L17.1234403,85.0521764 C17.1754585,85.7102567 17.2274767,86.3166306 17.2274767,86.8759989 C17.2274767,90.8291812 16.0026849,92.4978847 12.3330385,92.4978847 L0,92.4978847 L3.87299023,61.0886528 L3.87299023,61.0886528 Z" id="Path" fill="#FFFFFF"></path>
                <path d="M18.8069379,92.4978847 L21.8145347,67.7258626 C22.9873083,67.2699069 24.6187877,66.9643697 26.2502671,66.9643697 C29.1065383,66.9643697 30.2745829,67.9279872 29.8678953,71.2183886 L27.2669861,92.4978847 L18.8069379,92.4978847 Z M27.9290357,56.9850522 C30.2225648,56.9850522 31.6507003,58.3012127 31.3433202,60.9382345 C30.9886507,63.3214252 29.3571713,64.8914168 25.7348142,64.8914168 C23.2899595,64.8914168 22.0651678,63.1710069 22.3205297,60.8395224 C22.6279099,58.508038 24.3066786,56.9897527 27.9243068,56.9897527 L27.9290357,56.9850522 Z" id="Shape" fill="#FFFFFF"></path>
                <path d="M44.797114,75.6792329 C45.0004579,74.311366 44.7450959,73.5498731 43.5723223,73.5498731 C42.758947,73.5498731 41.6854809,74.0058287 41.1747569,74.4617843 C40.4086709,81.1977061 39.7986395,85.7572624 39.0845717,92.4978847 L30.7758491,92.4978847 L33.7314277,67.4203253 C34.1901335,67.0677823 36.7390245,66.508414 38.0111055,66.508414 C40.4559602,66.508414 41.2220461,67.5237379 41.5767156,69.2441478 C43.0568694,67.8245746 45.8563934,66.508414 48.5093208,66.508414 C51.1622482,66.508414 52.6896912,67.6741562 53.148397,69.4462724 C54.5245144,68.0266993 57.1254236,66.508414 60.3836535,66.508414 C64.4079693,66.508414 65.6327611,69.1407352 65.4814355,72.3324246 C65.4814355,74.2079534 63.3392321,92.4931842 63.3392321,92.4931842 L54.9832202,92.4931842 L56.969369,75.6745323 C57.1206947,74.3066654 56.8180434,73.5451725 55.697288,73.5451725 C54.8318946,73.5451725 53.8104466,74.0011281 53.2524334,74.4570838 L51.1622482,92.4931842 L42.8535255,92.4931842 L44.7876562,75.6745323 L44.797114,75.6792329 Z" id="Path" fill="#FFFFFF"></path>
                <path d="M79.4554112,93.0055467 C77.3132078,93.0055467 75.7337466,92.0936354 74.9203714,91.1300179 L73.7996159,99.9952994 L65.4436041,99.9952994 L69.5719563,66.8139513 C70.7447299,66.6118266 71.9175035,66.508414 73.5962721,66.508414 C75.2750408,66.508414 77.0105566,67.114788 77.2659186,69.2441478 C78.4907103,67.8245746 80.6281848,66.508414 83.4324378,66.508414 C87.6600974,66.508414 89.9583554,69.6483971 89.9583554,76.0317759 C89.9583554,82.4151546 87.7168446,93.0008461 79.4601401,93.0008461 L79.4554112,93.0055467 Z M79.3513748,73.3007427 C78.5379996,73.3007427 77.620588,73.6532857 77.0578458,73.958823 L75.6297102,85.7102567 C76.0363978,86.1662123 76.854502,86.5704616 77.6678772,86.5704616 C78.2779087,86.5704616 78.892669,86.467049 79.2993566,86.2179186 C80.5241484,83.9381405 80.9828542,80.6430385 81.0301435,79.2281658 C81.5408675,74.4147786 81.0301435,73.3007427 79.3466459,73.3007427 L79.3513748,73.3007427 Z" id="Shape" fill="#FFFFFF"></path>
                <path d="M90.9750744,92.4978847 L93.9826712,67.7258626 C95.1554448,67.2699069 96.7869242,66.9643697 98.4184036,66.9643697 C101.274675,66.9643697 102.442719,67.9279872 102.036032,71.2183886 L99.4351227,92.4978847 L90.9750744,92.4978847 Z M100.097172,56.9850522 C102.390701,56.9850522 103.818837,58.3012127 103.511457,60.9382345 C103.156787,63.3214252 101.525308,64.8914168 97.9029507,64.8914168 C95.4580961,64.8914168 94.2333043,63.1710069 94.4886663,60.8395224 C94.7960465,58.508038 96.4748151,56.9897527 100.092443,56.9897527 L100.097172,56.9850522 Z" id="Shape" fill="#FFFFFF"></path>
                <path d="M103.610764,82.9228166 C103.610764,75.4254019 106.107637,66.508414 113.957654,66.508414 C116.047839,66.508414 117.575282,67.2182006 118.59673,68.3322365 C119.717485,67.2182006 121.197639,66.508414 123.235806,66.508414 C124.867286,66.508414 126.040059,67.0677823 126.546054,67.5707436 L123.642494,92.4461784 C122.725082,92.7987214 121.400983,93.0055467 120.124173,93.0055467 C117.6273,93.0055467 116.605852,91.9432171 116.251183,89.2074833 C115.437808,90.8808875 113.040242,93.0055467 110.439333,93.0055467 C105.445587,93.0055467 103.610764,88.5964088 103.610764,82.9228166 L103.610764,82.9228166 Z M111.966776,82.565573 C111.966776,84.6949328 112.321445,86.3166306 113.801599,86.3166306 C114.666993,86.3166306 115.688441,85.508132 116.199165,84.4928081 L117.575282,73.4981668 C117.064558,73.1926295 116.402508,73.0939175 115.740459,73.0939175 C114.974373,73.0939175 114.260305,73.2443358 113.702292,73.4981668 C112.680844,75.8813575 111.971505,79.3221773 111.971505,82.565573 L111.966776,82.565573 Z" id="Shape" fill="#FFFFFF"></path>
                <path d="M141.88669,67.4720316 L141.938708,67.0677823 C142.752083,60.3788662 144.586906,57.2905895 152.843611,57.2905895 C155.241176,57.2905895 157.430669,57.8499577 158.858804,58.3529191 C158.452117,61.7467331 158.092718,63.9277992 155.647864,63.9277992 C154.78247,63.9277992 153.917077,63.7256745 152.843611,63.7256745 C151.926199,63.7256745 151.060806,63.9277992 150.654118,63.9795055 L150.24743,67.4767322 L154.172439,67.4767322 L153.406353,73.8084046 L149.429326,73.8084046 L146.322422,100 L137.961681,100 L141.120604,73.8084046 L138.571713,73.8084046 L139.385088,67.4767322 L141.881961,67.4767322 L141.88669,67.4720316 Z" id="Path" fill="#B6D055"></path>
                <path d="M153.86033,82.9228166 C153.86033,75.4254019 156.357202,66.508414 164.207219,66.508414 C166.297404,66.508414 167.824848,67.2182006 168.846295,68.3322365 C169.967051,67.2182006 171.447205,66.508414 173.485372,66.508414 C175.116851,66.508414 176.289625,67.0677823 176.800349,67.5707436 L173.896788,92.4461784 C172.979377,92.7987214 171.655277,93.0055467 170.378467,93.0055467 C167.881595,93.0055467 166.860147,91.9432171 166.505477,89.2074833 C165.692102,90.8808875 163.294537,93.0055467 160.693627,93.0055467 C155.699882,93.0055467 153.865059,88.5964088 153.865059,82.9228166 L153.86033,82.9228166 Z M162.216342,82.565573 C162.216342,84.6949328 162.571011,86.3166306 164.051165,86.3166306 C164.916558,86.3166306 165.938006,85.508132 166.44873,84.4928081 L167.824848,73.4981668 C167.314124,73.1926295 166.652074,73.0939175 165.990024,73.0939175 C165.223938,73.0939175 164.509871,73.2443358 163.951857,73.4981668 C162.930409,75.8813575 162.22107,79.3221773 162.22107,82.565573 L162.216342,82.565573 Z M173.428625,54.6018614 C175.112122,55.565479 176.029534,57.0837642 175.873479,58.3999248 C175.722154,59.6643791 174.601398,60.9335339 172.407177,62.2496945 C170.879734,63.1616057 168.174788,64.42606 166.444001,65.0888408 L163.743785,62.3531071 L173.428625,54.6018614 L173.428625,54.6018614 Z" id="Shape" fill="#B6D055"></path>
                <path d="M190.66083,66.508414 C193.975807,66.508414 196.013974,67.5707436 196.775331,68.1818182 C196.316625,72.0315879 195.19587,74.311366 193.512372,74.311366 C192.490924,74.311366 191.677549,73.5028673 190.150106,73.5028673 C189.639382,73.5028673 189.180676,73.60628 188.669952,73.7566983 C187.700523,75.1762715 187.038473,78.0107173 186.887147,80.1400771 C186.48046,84.1919714 187.804559,86.1709129 190.098088,86.1709129 C191.32288,86.1709129 192.542943,85.9687882 193.871771,85.2590016 L193.923789,90.9325938 C192.443635,92.098336 190.254143,93.0102473 186.891876,93.0102473 C181.794094,93.0102473 177.207036,89.0100592 178.07243,80.3939081 C178.989841,71.3782081 183.524881,66.5131146 190.66083,66.5131146 L190.66083,66.508414 Z" id="Path" fill="#B6D055"></path>
                <path d="M196.160571,92.4978847 L199.168168,67.7258626 C200.340941,67.2699069 201.972421,66.9643697 203.6039,66.9643697 C206.460171,66.9643697 207.628216,67.9279872 207.221528,71.2183886 L204.620619,92.4978847 L196.160571,92.4978847 Z M205.282669,56.9850522 C207.576198,56.9850522 209.004333,58.3012127 208.696953,60.9382345 C208.342284,63.3214252 206.710804,64.8914168 203.088447,64.8914168 C200.643593,64.8914168 199.418801,63.1710069 199.674163,60.8395224 C199.981543,58.508038 201.660312,56.9897527 205.27794,56.9897527 L205.282669,56.9850522 Z" id="Shape" fill="#B6D055"></path>
                <path d="M211.808586,58.9122873 C212.67398,58.508038 214.967509,58.000376 216.291608,58.000376 C219.398512,58.000376 220.315924,59.0156999 219.909236,62.155683 L217.157001,84.5962207 C217.005676,85.9123813 217.719744,86.3166306 218.637155,86.3166306 C219.147879,86.3166306 219.757911,86.2179186 219.909236,86.1662123 L219.601856,91.7880981 C218.83577,92.1923475 217.000947,93.0055467 214.707418,93.0055467 C210.782409,93.0055467 207.978156,90.7257685 208.540899,85.9640876 L211.803857,58.9122873 L211.808586,58.9122873 Z" id="Path" fill="#B6D055"></path>
            </g>
        </g>
    </g>
</svg>