<?xml version="1.0" encoding="UTF-8"?><svg id="Capa_2" xmlns="http://www.w3.org/2000/svg" xmlns:xlink="http://www.w3.org/1999/xlink" viewBox="0 0 685.8 114.91"><defs><style>.cls-1{fill:url(#linear-gradient);}.cls-2{fill:#b8ce12;}.cls-3{fill:#0f406c;}.cls-4{fill:url(#linear-gradient-3);}.cls-5{fill:url(#linear-gradient-4);}.cls-6{fill:url(#linear-gradient-2);}</style><linearGradient id="linear-gradient" x1="189.1" y1="57.46" x2="27.24" y2="57.46" gradientUnits="userSpaceOnUse"><stop offset="0" stop-color="#b8ce12"/><stop offset=".05" stop-color="#aecc25"/><stop offset=".18" stop-color="#94c95a"/><stop offset=".32" stop-color="#7dc687"/><stop offset=".46" stop-color="#6ac4ad"/><stop offset=".6" stop-color="#5cc2c9"/><stop offset=".73" stop-color="#52c1de"/><stop offset=".87" stop-color="#4cc0ea"/><stop offset="1" stop-color="#4ac0ef"/></linearGradient><linearGradient id="linear-gradient-2" x1="189.1" y1="77.22" x2="27.24" y2="77.22" xlink:href="#linear-gradient"/><linearGradient id="linear-gradient-3" x1="189.1" y1="30.65" x2="27.24" y2="30.65" xlink:href="#linear-gradient"/><linearGradient id="linear-gradient-4" x1="189.1" y1="57.54" x2="27.24" y2="57.54" xlink:href="#linear-gradient"/></defs><g id="Layer_1"><path class="cls-1" d="m160.84,105.23v-21.33c7.81,2.53,14.03,7.61,15.49,13.2,9.84-10.31,15.89-24.27,15.89-39.65,0-31.73-25.72-57.45-57.45-57.45-13.81,0-26.48,4.87-36.39,12.99h-44.61c-2.72,0-4.94,2.23-4.94,4.94s2.22,4.94,4.94,4.94h27.36c2.72,0,4.94,2.22,4.94,4.94s-2.22,4.94-4.94,4.94H25.56c-2.72,0-4.94,2.22-4.94,4.94s2.22,4.94,4.94,4.94h42.16c2.72,0,4.94,2.22,4.94,4.94s-2.22,4.94-4.94,4.94H4.94c-2.72,0-4.94,2.22-4.94,4.94s2.22,4.94,4.94,4.94h69.56c2.72,0,4.94,2.23,4.94,4.94s-2.23,4.94-4.94,4.94h-6.82c-6.3.82-6.35,8.65-.24,9.88h5.12c6.49,0,6.49,9.88,0,9.88h-12.31c-2.72,0-4.94,2.22-4.94,4.94s2.22,4.94,4.94,4.94h38.13c.17.14.34.26.5.4v-2.74c0-6.52,6.87-12.72,15.81-15.65v27.37c6.25,2.33,13,3.61,20.06,3.61,9.39,0,18.25-2.27,26.07-6.26v-3.42Zm-35.82-3.22v-20.14c-13.41-1.09-24.54-3.82-27.28-7.67,12.2-1.65,10.94-11.71,10.94-28.46,0-21,14.33-31.49,28.67-31.49s28.67,10.5,28.67,31.49c0,16.75-1.26,26.82,10.94,28.46-2.72,3.82-13.66,6.53-26.89,7.64l.47.07v20.1h-25.51Z"/><path class="cls-6" d="m51.06,72.28h-14.15c-2.72,0-4.94,2.22-4.94,4.94s2.23,4.94,4.94,4.94h14.15c2.72,0,4.94-2.23,4.94-4.94s-2.22-4.94-4.94-4.94Z"/><path class="cls-4" d="m160.1,40.38c.69-.96,1.09-2.08,1.09-3.27,0-3.54-3.47-6.41-7.76-6.41-.59,0-1.17.06-1.73.16-1.21-5.64-7.19-9.93-14.36-9.93s-13.15,4.29-14.36,9.93c-.56-.1-1.14-.16-1.73-.16-4.28,0-7.75,2.87-7.75,6.41,0,1.2.4,2.31,1.09,3.27,5.24-3.71,13.49-6.1,22.76-6.1s17.52,2.39,22.76,6.1Z"/><path class="cls-5" d="m158.02,53.77c0-8.7-15.42-8.51-20.68-14.64-1.03-.02,0,4.64,9.73,10.93-8.91.24-18.38-2.17-23.35-9.33-1.41,5.27-5.42,5.93-7.05,5.93v7.11c0,29.57,41.35,29.57,41.35,0Z"/><path class="cls-3" d="m228.76,22.97c2.69-.75,7.33-1.4,10.45-1.4,7.98,0,7.98,1.72,6.79,11.53l-5.17,41.39,15.95-.54c.11,1.4.22,2.69.22,3.88,0,8.41-2.59,11.96-10.35,11.96h-26.08l8.19-66.82Z"/><path class="cls-3" d="m260.34,89.79l6.36-52.7c2.48-.97,5.93-1.62,9.38-1.62,6.04,0,8.51,2.05,7.65,9.05l-5.5,45.27h-17.89Zm19.29-75.55c4.85,0,7.87,2.8,7.22,8.41-.75,5.07-4.2,8.41-11.86,8.41-5.17,0-7.76-3.66-7.22-8.62.65-4.96,4.2-8.19,11.85-8.19Z"/><path class="cls-3" d="m315.3,54.01c.43-2.91-.11-4.53-2.59-4.53-1.72,0-3.99.97-5.07,1.94-1.62,14.33-2.91,24.03-4.42,38.37h-17.57l6.25-53.35c.97-.75,6.36-1.94,9.05-1.94,5.17,0,6.79,2.16,7.54,5.82,3.13-3.02,9.05-5.82,14.66-5.82s8.84,2.48,9.81,6.25c2.91-3.02,8.41-6.25,15.3-6.25,8.51,0,11.1,5.6,10.78,12.39,0,3.99-4.53,42.89-4.53,42.89h-17.67l4.2-35.78c.32-2.91-.32-4.53-2.69-4.53-1.83,0-3.99.97-5.17,1.94l-4.42,38.37h-17.57l4.09-35.78Z"/><path class="cls-3" d="m388.59,90.87c-4.53,0-7.87-1.94-9.59-3.99l-2.37,18.86h-17.67l8.73-70.59c2.48-.43,4.96-.65,8.51-.65s7.22,1.29,7.76,5.82c2.59-3.02,7.11-5.82,13.04-5.82,8.94,0,13.8,6.68,13.8,20.26s-4.74,36.1-22.2,36.1Zm-.22-41.92c-1.72,0-3.66.75-4.85,1.4l-3.02,25c.86.97,2.59,1.83,4.31,1.83,1.29,0,2.59-.22,3.45-.75,2.59-4.85,3.56-11.86,3.66-14.87,1.08-10.24,0-12.61-3.56-12.61Z"/><path class="cls-3" d="m412.94,89.79l6.36-52.7c2.48-.97,5.93-1.62,9.38-1.62,6.04,0,8.51,2.05,7.65,9.05l-5.5,45.27h-17.89Zm19.29-75.55c4.85,0,7.87,2.8,7.22,8.41-.75,5.07-4.2,8.41-11.86,8.41-5.17,0-7.76-3.66-7.22-8.62.65-4.96,4.2-8.19,11.85-8.19Z"/><path class="cls-3" d="m439.67,69.42c0-15.95,5.28-34.92,21.88-34.92,4.42,0,7.65,1.51,9.81,3.88,2.37-2.37,5.5-3.88,9.81-3.88,3.45,0,5.93,1.19,7,2.26l-6.14,52.92c-1.94.75-4.74,1.19-7.44,1.19-5.28,0-7.44-2.26-8.19-8.08-1.72,3.56-6.79,8.08-12.29,8.08-10.56,0-14.44-9.38-14.44-21.45Zm17.67-.76c0,4.53.75,7.98,3.88,7.98,1.83,0,3.99-1.72,5.07-3.88l2.91-23.39c-1.08-.65-2.48-.86-3.88-.86-1.62,0-3.13.32-4.31.86-2.16,5.07-3.66,12.39-3.66,19.29Z"/><path class="cls-2" d="m520.61,36.55l.11-.86c1.72-14.23,5.6-20.8,23.06-20.8,5.07,0,9.7,1.19,12.72,2.26-.86,7.22-1.62,11.86-6.79,11.86-1.83,0-3.66-.43-5.93-.43-1.94,0-3.77.43-4.63.54l-.86,7.44h8.3l-1.62,13.47h-8.41l-6.57,55.72h-17.68l6.68-55.72h-5.39l1.72-13.47h5.28Z"/><path class="cls-2" d="m545.93,69.42c0-15.95,5.28-34.92,21.88-34.92,4.42,0,7.65,1.51,9.81,3.88,2.37-2.37,5.5-3.88,9.81-3.88,3.45,0,5.93,1.19,7.01,2.26l-6.14,52.92c-1.94.75-4.74,1.19-7.44,1.19-5.28,0-7.44-2.26-8.19-8.08-1.72,3.56-6.79,8.08-12.29,8.08-10.56,0-14.44-9.38-14.44-21.45Zm17.67-.76c0,4.53.75,7.98,3.88,7.98,1.83,0,3.99-1.72,5.07-3.88l2.91-23.39c-1.08-.65-2.48-.86-3.88-.86-1.62,0-3.13.32-4.31.86-2.16,5.07-3.66,12.39-3.66,19.29Zm23.71-59.49c3.56,2.05,5.5,5.28,5.17,8.08-.32,2.69-2.69,5.39-7.33,8.19-3.23,1.94-8.95,4.63-12.61,6.04l-5.71-5.82,20.48-16.49Z"/><path class="cls-2" d="m623.74,34.5c7.01,0,11.32,2.26,12.93,3.56-.97,8.19-3.34,13.04-6.9,13.04-2.16,0-3.88-1.72-7.11-1.72-1.08,0-2.05.22-3.13.54-2.05,3.02-3.45,9.05-3.77,13.58-.86,8.62,1.94,12.83,6.79,12.83,2.59,0,5.17-.43,7.98-1.94l.11,12.07c-3.13,2.48-7.76,4.42-14.87,4.42-10.78,0-20.48-8.51-18.65-26.84,1.94-19.18,11.53-29.53,26.62-29.53Z"/><path class="cls-2" d="m635.38,89.79l6.36-52.7c2.48-.97,5.93-1.62,9.38-1.62,6.04,0,8.51,2.05,7.65,9.05l-5.5,45.27h-17.89Zm19.29-75.55c4.85,0,7.87,2.8,7.22,8.41-.75,5.07-4.2,8.41-11.86,8.41-5.17,0-7.76-3.66-7.22-8.62.65-4.96,4.2-8.19,11.85-8.19Z"/><path class="cls-2" d="m668.47,18.33c1.83-.86,6.68-1.94,9.48-1.94,6.57,0,8.51,2.16,7.65,8.84l-5.82,47.74c-.32,2.8,1.19,3.66,3.13,3.66,1.08,0,2.37-.21,2.69-.32l-.65,11.96c-1.62.86-5.5,2.59-10.35,2.59-8.3,0-14.23-4.85-13.04-14.98l6.9-57.55Z"/></g></svg>