<?xml version="1.0" encoding="UTF-8"?>
<svg width="32px" height="32px" viewBox="0 0 32 32" version="1.1" xmlns="http://www.w3.org/2000/svg" xmlns:xlink="http://www.w3.org/1999/xlink">
    <title>social-instagram-svgrepo-com copy</title>
    <g id="Web-app" stroke="none" stroke-width="1" fill="none" fill-rule="evenodd">
        <g id="Web-App-1" transform="translate(-1092, -1331)" fill="#242755" fill-rule="nonzero">
            <g id="Group-5" transform="translate(98, 1306)">
                <g id="Group-4" transform="translate(633, 25)">
                    <g id="social-instagram-svgrepo-com-copy" transform="translate(361, 0)">
                        <path d="M16,0 C7.1630625,0 0,7.1630625 0,16 C0,24.837 7.1630625,32 16,32 C24.837,32 32,24.837 32,16 C32,7.1630625 24.837,0 16,0 Z M16,29.5 C8.5439375,29.5 2.5,23.456125 2.5,16 C2.5,8.5439375 8.5439375,2.5 16,2.5 C23.456125,2.5 29.5,8.5439375 29.5,16 C29.5,23.456125 23.456125,29.5 16,29.5 Z" id="Shape"></path>
                        <path d="M20.272,10.768 L20.272,10.768 C19.8837162,10.768 19.5336654,11.0018965 19.3850756,11.3606239 C19.2364859,11.7193513 19.3186194,12.1322644 19.5931775,12.4068225 C19.8677356,12.6813806 20.2806487,12.7635141 20.6393761,12.6149244 C20.9981035,12.4663346 21.232,12.1162838 21.232,11.728 C21.232,11.1978066 20.8021934,10.768 20.272,10.768 Z M23.952,12.704 C23.9364418,12.0402386 23.8121252,11.3835224 23.584,10.76 C23.3805855,10.2265061 23.0639886,9.74342278 22.656,9.344 C22.2598579,8.93394072 21.7756482,8.61934119 21.24,8.424 C20.6181254,8.18892864 19.9606781,8.06176804 19.296,8.048 C18.448,8 18.176,8 16,8 C13.824,8 13.552,8 12.704,8.048 C12.0393219,8.06176804 11.3818746,8.18892864 10.76,8.424 C10.2253413,8.62131885 9.74154708,8.93564841 9.344,9.344 C8.93394072,9.74014209 8.61934119,10.2243518 8.424,10.76 C8.18892864,11.3818746 8.06176804,12.0393219 8.048,12.704 C8,13.552 8,13.824 8,16 C8,18.176 8,18.448 8.048,19.296 C8.06176804,19.9606781 8.18892864,20.6181254 8.424,21.24 C8.61934119,21.7756482 8.93394072,22.2598579 9.344,22.656 C9.74154708,23.0643516 10.2253413,23.3786811 10.76,23.576 C11.3818746,23.8110714 12.0393219,23.938232 12.704,23.952 C13.552,24 13.824,24 16,24 C18.176,24 18.448,24 19.296,23.952 C19.9606781,23.938232 20.6181254,23.8110714 21.24,23.576 C21.7756482,23.3806588 22.2598579,23.0660593 22.656,22.656 C23.0657937,22.2580643 23.3826694,21.7745556 23.584,21.24 C23.8121252,20.6164776 23.9364418,19.9597614 23.952,19.296 C23.952,18.448 24,18.176 24,16 C24,13.824 24,13.552 23.952,12.704 Z M22.512,19.2 C22.5061755,19.7078169 22.4142027,20.2109619 22.24,20.688 C22.1122671,21.0361549 21.9071035,21.350739 21.64,21.608 C21.3805178,21.8724051 21.066581,22.0771465 20.72,22.208 C20.2429619,22.3822027 19.7398169,22.4741755 19.232,22.48 C18.432,22.52 18.136,22.528 16.032,22.528 C13.928,22.528 13.632,22.528 12.832,22.48 C12.3047126,22.4898728 11.7796759,22.4086816 11.28,22.24 C10.9486254,22.102462 10.6490847,21.8982298 10.4,21.64 C10.1344709,21.3829987 9.93187445,21.068153 9.808,20.72 C9.61268495,20.2361219 9.50435485,19.7215539 9.488,19.2 C9.488,18.4 9.44,18.104 9.44,16 C9.44,13.896 9.44,13.6 9.488,12.8 C9.49158593,12.2808444 9.58636007,11.7663562 9.768,11.28 C9.90883764,10.9423289 10.125012,10.6413267 10.4,10.4 C10.6430507,10.1249346 10.9434302,9.90647676 11.28,9.76 C11.7676409,9.58403498 12.2815978,9.49206373 12.8,9.488 C13.6,9.488 13.896,9.44 16,9.44 C18.104,9.44 18.4,9.44 19.2,9.488 C19.7078169,9.49382454 20.2109619,9.58579728 20.688,9.76 C21.0515437,9.89492198 21.3778349,10.1142774 21.64,10.4 C21.9021616,10.6457427 22.1070094,10.9461862 22.24,11.28 C22.4178024,11.767147 22.5098309,12.2814239 22.512,12.8 C22.552,13.6 22.56,13.896 22.56,16 C22.56,18.104 22.552,18.4 22.512,19.2 Z M16,11.8959687 C13.73447,11.9004162 11.9010607,13.7397906 11.9039999,16.0053229 C11.9069462,18.2708553 13.7451277,20.1054606 16.0106615,20.1039922 C18.2761953,20.1025221 20.1120079,18.2655343 20.1120079,16 C20.1141382,14.9095097 19.6813407,13.8631839 18.9094957,13.0928406 C18.1376507,12.3224972 17.0904841,11.8917382 16,11.8959687 Z M16,18.664 C14.5287134,18.664 13.336,17.4712866 13.336,16 C13.336,14.5287134 14.5287134,13.336 16,13.336 C17.4712866,13.336 18.664,14.5287134 18.664,16 C18.664,16.7065367 18.3833294,17.3841356 17.8837325,17.8837325 C17.3841356,18.3833294 16.7065367,18.664 16,18.664 Z" id="Shape"></path>
                    </g>
                </g>
            </g>
        </g>
    </g>
</svg>