<?xml version="1.0" encoding="UTF-8"?>
<svg width="32px" height="32px" viewBox="0 0 32 32" version="1.1" xmlns="http://www.w3.org/2000/svg" xmlns:xlink="http://www.w3.org/1999/xlink">
    <title>social-twitter-svgrepo-com</title>
    <g id="Web-app" stroke="none" stroke-width="1" fill="none" fill-rule="evenodd">
        <g id="Web-App-1" transform="translate(-1172, -1331)" fill="#242755" fill-rule="nonzero">
            <g id="Group-5" transform="translate(98, 1306)">
                <g id="Group-4" transform="translate(633, 25)">
                    <g id="social-twitter-svgrepo-com" transform="translate(441, 0)">
                        <path d="M16,0 C7.1630625,0 0,7.1630625 0,16 C0,24.837 7.1630625,32 16,32 C24.837,32 32,24.837 32,16 C32,7.1630625 24.837,0 16,0 Z M16,29.5 C8.5439375,29.5 2.5,23.456125 2.5,16 C2.5,8.5439375 8.5439375,2.5 16,2.5 C23.456125,2.5 29.5,8.5439375 29.5,16 C29.5,23.456125 23.456125,29.5 16,29.5 Z" id="Shape"></path>
                        <path d="M24,10.682625 C23.7304375,10.84275 22.922,11.1620625 22.1679375,11.2421875 C22.6514375,10.9615 23.3671875,10.042 23.5439375,9.3115625 C23.07925,9.630875 22.0116875,10.0966875 21.4845625,10.0966875 C21.4845625,10.0966875 21.4845625,10.098125 21.4855625,10.099125 C20.8838125,9.421875 20.038,9 19.0985625,9 C17.2764375,9 15.7979375,10.5913125 15.7979375,12.5546875 C15.7979375,12.8271875 15.828,13.091875 15.88275,13.3466875 L15.8816875,13.3466875 C13.4090625,13.2783125 10.5185,11.9438125 8.8895625,9.6591875 C7.8895625,11.5249375 8.7548125,13.5995625 9.8905,14.3555 C9.5028125,14.38775 8.7860625,14.307625 8.4491875,13.9550625 C8.42575,15.192375 8.9794375,16.8330625 10.995125,17.42775 C10.6063125,17.653375 9.92075,17.5889375 9.621125,17.5390625 C9.7265625,18.5859375 11.0859375,19.953 12.57125,19.953 C12.041875,20.611375 10.2354375,21.809625 7.9999375,21.42775 C9.518625,22.423875 11.2890625,23 13.163,23 C18.4883125,23 22.624,18.3525625 22.401375,12.6191875 C22.401375,12.6123125 22.3994375,12.6055 22.3994375,12.599625 C22.3994375,12.584 22.401375,12.568375 22.401375,12.5546875 C22.401375,12.537125 22.3994375,12.5195625 22.3994375,12.501 C22.8838125,12.1455 23.534125,11.514625 24,10.682625 Z" id="Path"></path>
                    </g>
                </g>
            </g>
        </g>
    </g>
</svg>