<?xml version="1.0" encoding="UTF-8"?>
<svg width="32px" height="32px" viewBox="0 0 32 32" version="1.1" xmlns="http://www.w3.org/2000/svg" xmlns:xlink="http://www.w3.org/1999/xlink">
    <title>social-linkedin-svgrepo-com</title>
    <g id="Web-app" stroke="none" stroke-width="1" fill="none" fill-rule="evenodd">
        <g id="Web-App-1" transform="translate(-1212, -1331)" fill="#242755" fill-rule="nonzero">
            <g id="Group-5" transform="translate(98, 1306)">
                <g id="Group-4" transform="translate(633, 25)">
                    <g id="social-linkedin-svgrepo-com" transform="translate(481, 0)">
                        <path d="M16,0 C7.1630625,0 0,7.1630625 0,16 C0,24.8369375 7.1630625,32 16,32 C24.8369375,32 32,24.8369375 32,16 C32,7.1630625 24.8369375,0 16,0 Z M16,29.5 C8.5439375,29.5 2.5,23.4560625 2.5,16 C2.5,8.5439375 8.5439375,2.5 16,2.5 C23.4560625,2.5 29.5,8.5439375 29.5,16 C29.5,23.4560625 23.4560625,29.5 16,29.5 Z" id="Shape"></path>
                        <path d="M8.005875,23.9931875 L11.005875,23.9931875 L11.005875,11.9931875 L8.005875,11.9931875 L8.005875,23.9931875 Z M20.005875,11.9931875 C17.4375,12.0361875 16.173875,13.90825 16.005875,13.9931875 L16.005875,11.9931875 L13.005875,11.9931875 L13.005875,23.9931875 L16.005875,23.9931875 L16.005875,16.9931875 C16.005875,16.736375 16.6386875,14.6806875 19.005875,14.9931875 C20.277375,15.0761875 20.962875,16.7578125 21.005875,16.9931875 L21.005875,23.9931875 L23.994125,24.006875 L23.994125,15.69925 C23.8886875,14.5 23.2890625,12.036125 20.005875,11.9931875 Z M9.505875,7.9931875 C8.67775,7.9931875 8.005875,8.6640625 8.005875,9.4931875 C8.005875,10.3223125 8.67775,10.9931875 9.505875,10.9931875 C10.334,10.9931875 11.005875,10.3223125 11.005875,9.4931875 C11.005875,8.6640625 10.334,7.9931875 9.505875,7.9931875 Z" id="Shape"></path>
                    </g>
                </g>
            </g>
        </g>
    </g>
</svg>