<?xml version="1.0" encoding="UTF-8"?>
<svg width="32px" height="32px" viewBox="0 0 32 32" version="1.1" xmlns="http://www.w3.org/2000/svg" xmlns:xlink="http://www.w3.org/1999/xlink">
    <title>social-facebook-svgrepo-com</title>
    <g id="Web-app" stroke="none" stroke-width="1" fill="none" fill-rule="evenodd">
        <g id="Web-App-1" transform="translate(-1132, -1331)" fill="#242755" fill-rule="nonzero">
            <g id="Group-5" transform="translate(98, 1306)">
                <g id="Group-4" transform="translate(633, 25)">
                    <g id="social-facebook-svgrepo-com" transform="translate(401, 0)">
                        <path d="M16,0 C7.1630625,0 0,7.1630625 0,16 C0,24.8369375 7.1630625,32 16,32 C24.8369375,32 32,24.8369375 32,16 C32,7.1630625 24.8369375,0 16,0 Z M16,29.5 C8.5439375,29.5 2.5,23.4560625 2.5,16 C2.5,8.5439375 8.5439375,2.5 16,2.5 C23.4560625,2.5 29.5,8.5439375 29.5,16 C29.5,23.4560625 23.4560625,29.5 16,29.5 Z" id="Shape"></path>
                        <path d="M19.796875,13.55075 L17.0136875,13.55075 L17.0136875,11.5195 C17.0136875,10.8964375 17.6581875,10.7519375 17.959,10.7519375 C18.2578125,10.7519375 19.756875,10.7519375 19.756875,10.7519375 L19.756875,8.01075 L17.6963125,8 C14.8848125,8 14.2431875,10.0439375 14.2431875,11.3545 L14.2431875,13.5508125 L12.203125,13.5508125 L12.203125,16.375 L14.2431875,16.375 C14.2431875,20.001 14.2431875,24 14.2431875,24 L17.0136875,24 C17.0136875,24 17.0136875,19.9599375 17.0136875,16.375 L19.3671875,16.375 L19.796875,13.55075 Z" id="Path"></path>
                    </g>
                </g>
            </g>
        </g>
    </g>
</svg>