<?xml version="1.0" encoding="UTF-8"?>
<svg width="30px" height="30px" viewBox="0 0 30 30" version="1.1" xmlns="http://www.w3.org/2000/svg" xmlns:xlink="http://www.w3.org/1999/xlink">
    <title>user-svgrepo-com copy</title>
    <g id="Web-app" stroke="none" stroke-width="1" fill="none" fill-rule="evenodd">
        <g id="Web-App-1" transform="translate(-1266, -47)" fill="#242755" fill-rule="nonzero">
            <g id="Group-25-Copy" transform="translate(1066, 42)">
                <g id="user-svgrepo-com-copy" transform="translate(200, 5)">
                    <path d="M15,0 C6.71537109,0 0,6.71537109 0,15 C0,23.2846289 6.71537109,30 15,30 C23.2846289,30 30,23.2846289 30,15 C30,6.71537109 23.2846289,0 15,0 Z M15,27.65625 C8.00994141,27.65625 2.34375,21.9900586 2.34375,15 C2.34375,8.00994141 8.00994141,2.34375 15,2.34375 C21.9900586,2.34375 27.65625,8.00994141 27.65625,15 C27.65625,21.9900586 21.9900586,27.65625 15,27.65625 Z" id="Shape"></path>
                    <path d="M19.0960547,17.9407031 C18.1585547,17.7805078 16.875,16.8713672 16.875,16.4767969 L16.875,15.4797656 C16.875,15.1080469 17.3785547,14.4122461 17.5927734,13.7714063 C17.6129297,13.7109961 17.7420117,13.7805469 17.8674609,13.6276758 C18.1036523,13.3365234 18.138457,12.8943164 18.1924805,12.6929297 C18.2785547,12.3761719 17.8940039,12.3633398 17.8940039,12.3633398 C17.8940039,12.3633398 18.1805859,10.7007422 17.9260547,9.650625 C17.5818164,8.22058594 15.7287891,7.50005859 15.0036914,7.50005859 C14.2776563,7.50005859 12.4273828,8.22058594 12.0813281,9.650625 C11.8267969,10.7007422 12.1197656,12.3633398 12.1197656,12.3633398 C12.1197656,12.3633398 11.7489844,12.3761719 11.8341211,12.6929297 C11.889082,12.894375 11.9494922,13.3365234 12.1875,13.6276758 C12.3120117,13.7805469 12.3870703,13.7109961 12.4072266,13.7714063 C12.6214453,14.4123047 13.125,15.1080469 13.125,15.4797656 L13.125,16.4767969 C13.125,16.8713672 11.8405078,17.7805078 10.9030078,17.9407031 C9.69908203,18.1457813 9.10400391,18.9779883 9.38595703,21.0534961 C9.52693359,22.0899023 12.2625586,22.5357422 14.9725195,22.4973047 C17.6824805,22.5357422 20.4592969,22.0899023 20.6002734,21.0534961 C20.8831641,18.9779883 20.300918,18.1457813 19.0960547,17.9407031 Z" id="Path"></path>
                </g>
            </g>
        </g>
    </g>
</svg>